<svg viewBox="0 0 200 200" xmlns="http://www.w3.org/2000/svg">
  <path fill="#00AF91" d="M46.8,-79.7C60.9,-72.9,72.9,-60.9,80.7,-46.8C88.5,-32.7,92.1,-16.3,90.9,-0.7C89.7,14.9,83.6,29.8,75.2,42.9C66.8,56,56.1,67.3,43.2,74.5C30.2,81.6,15.1,84.7,0,84.7C-15.2,84.8,-30.4,81.8,-44.4,75.3C-58.5,68.8,-71.4,58.8,-79.5,45.6C-87.7,32.5,-91,16.2,-91.3,-0.2C-91.6,-16.6,-88.8,-33.1,-81.4,-47.5C-74,-62,-62,-74.2,-47.6,-80.9C-33.3,-87.7,-16.6,-88.9,-0.2,-88.6C16.3,-88.3,32.6,-86.6,46.8,-79.7Z" transform="translate(100 100)" />
</svg>