<svg width="200" height="200" xmlns="http://www.w3.org/2000/svg" style="vector-effect: non-scaling-stroke;" stroke="null">
 <defs style="vector-effect: non-scaling-stroke;" stroke="null">
  <clipPath style="vector-effect: non-scaling-stroke;" stroke="null" id="clipPath18" clipPathUnits="userSpaceOnUse">
   <path style="vector-effect: non-scaling-stroke;" stroke="null" id="path20" d="m0,551.986l530.973,0l0,-551.986l-530.973,0l0,551.986z"/>
  </clipPath>
  <clipPath style="vector-effect: non-scaling-stroke;" stroke="null" id="clipPath18-7" clipPathUnits="userSpaceOnUse">
   <path style="vector-effect: non-scaling-stroke;" stroke="null" id="path20-4" d="m0,551.986l530.973,0l0,-551.986l-530.973,0l0,551.986z"/>
  </clipPath>
  <filter style="vector-effect: non-scaling-stroke;" stroke="null" id="svg_16_blur">
   <feGaussianBlur style="vector-effect: non-scaling-stroke;" stroke="null" stdDeviation="0.3" in="SourceGraphic"/>
  </filter>
  <filter id="svg_28_blur">
   <feGaussianBlur stdDeviation="0.1" in="SourceGraphic"/>
  </filter>
 </defs>
 <g stroke="null">
  <title stroke="null">background</title>
  <rect stroke="null" fill="none" id="canvas_background" height="402" width="582" y="-1" x="-1"/>
 </g>
 <g stroke="null">
  <title stroke="null">Layer 1</title>
  <path stroke="null" fill="#e1e8ed" id="path6904" d="m94.534712,431.181091c-49.70563,0 -90,40.29437 -90,90c0,49.70567 40.29437,90 90,90c0.75044,0 1.47964,-0.084 2.21875,-0.125c0.26003,-0.014 0.52093,-0.01825 0.78125,-0.03125c0.93792,-0.046 1.87645,-0.09605 2.8125,-0.15625c0.96378,-0.06186 1.89076,-0.24546 2.84375,-0.34375c2.0633,-0.21281 4.13392,-0.40291 6.15625,-0.75c3.40887,-0.585 6.76448,-1.33505 10.03125,-2.28125c5.67307,-1.6433 11.11833,-3.782 16.28125,-6.4375c18.08925,-9.3041 32.44221,-24.61048 40.78125,-43.21875c0.0631,-0.14086 0.15632,-0.26501 0.21875,-0.40625c1.70139,-3.84911 3.2178,-7.79522 4.375,-11.90625c0.67583,-2.40093 1.16632,-4.87165 1.65625,-7.34375c0.1628,-0.82145 0.4264,-1.606 0.5625,-2.4375c0.31126,-1.90166 0.40556,-3.87224 0.59375,-5.8125c0.17397,-1.79362 0.45022,-3.55437 0.53125,-5.375c0.05,-1.12451 0.15625,-2.23807 0.15625,-3.375c0,-3.65022 -0.29637,-7.21352 -0.71875,-10.75c-0.0857,-0.71775 -0.24127,-1.41252 -0.34375,-2.125c-6.26818,-43.58012 -43.62292,-77.125 -88.9375,-77.125z"/>
  <path stroke="null" fill="#e1e8ed" id="path6770" d="m94.534712,431.181091c-49.70563,0 -90,40.29437 -90,90c0,49.70567 40.29437,90 90,90c0.75044,0 1.47964,-0.084 2.21875,-0.125c0.26003,-0.014 0.52093,-0.01825 0.78125,-0.03125c0.93792,-0.046 1.87645,-0.09605 2.8125,-0.15625c0.96378,-0.06186 1.89076,-0.24546 2.84375,-0.34375l-57.875,-57.875l3.84375,-3.15625c0,0 5.77141,-12.54701 6.09375,-13.75c0.08058,-0.30075 1.54072,-0.44361 3.6875,-0.5c2.14678,-0.05639 4.99042,-0.01269 7.8125,0.0625c5.64417,0.15037 11.25,0.4375 11.25,0.4375l21.625,-12.5l-4.9375,-4.9375l0,-0.5l3.96875,-13.3125l44.4375,-15.3125l40.75,40.75c0.17397,-1.79362 0.45022,-3.55437 0.53125,-5.375c0.05,-1.12451 0.15625,-2.23807 0.15625,-3.375c0,-3.65022 -0.29637,-7.21352 -0.71875,-10.75c-0.0857,-0.71775 -0.24127,-1.41252 -0.34375,-2.125c-6.26818,-43.58012 -43.62292,-77.125 -88.9375,-77.125z"/>
  <path stroke="null" fill="#000000" id="path6013"/>
  <path stroke="null" fill="#000000" id="path6011"/>
  <path stroke="null" fill="#000000" id="path6009"/>
  <rect style="vector-effect: non-scaling-stroke;" rx="15" id="svg_1" height="115.845148" width="115.845148" y="42.144382" x="52.250207" stroke-width="null" fill="#4fbe9f"/>
  <polyline stroke-linecap="round" id="svg_5" points="-28.924441737275785,47.542184271175515 -28.7168339456986,47.95739985432989 " fill-opacity="null" stroke-width="null" fill="none"/>
  <path filter="url(#svg_16_blur)" id="svg_16" d="m158.311356,63.410525c5.248877,3.993407 9.690235,8.785495 9.690235,8.785495c0,0 0,67.288904 -0.136764,67.089237c0.136764,0.199667 0.944284,-4.792092 0.136764,1.397689c-0.80752,6.18978 1.211279,2.995055 -3.028198,7.986814c-4.239478,4.991758 -3.431958,4.991758 -9.084595,5.391099c-5.652637,0.399341 -74.291802,0.399341 -74.291802,0.399341c0,0 -15.544752,-28.752529 -15.681519,-28.952196c0.136767,0.199667 50.404861,-23.760774 50.268096,-23.960441c0.136766,0.199668 4.780003,-2.795387 4.643238,-2.995055c0.136765,0.199668 -8.54407,-6.988464 -8.680836,-7.188132c0.136766,0.199668 40.916505,-31.947256 46.165382,-27.95385z" stroke-width="null" fill="#09816c"/>
  <ellipse stroke-dasharray="2,2" ry="15.129417" rx="15.596535" id="svg_22" cy="142.102341" cx="152.410061" stroke-width="null" fill="#09816c"/>
  <path fill="#fff" fill-opacity="0.94" id="path6875" d="m65.01653,62.76523c-1.31851,0.0256 -2.50762,0.32267 -3.375,0.84375l48.6875,29.15625l48.4375,-29.125c-0.80772,-0.50236 -1.92664,-0.77637 -3.15625,-0.84375l-90.59375,-0.0312l0,-0.00005zm-3.375,5.75c-0.90375,0.55033 -1.46875,1.31287 -1.46875,2.15625l0,54.8125c0,1.68677 2.23,3.03127 5,3.03127l90,0c2.77,0 5,-1.3445 5,-3.03127l0,-54.8125c0,-0.8243 -0.53837,-1.57786 -1.40625,-2.125l-48.4375,29.5l-48.6875,-29.53125z"/>
  <path d="m82.212685,153.069229c0,0.103806 -0.079453,0.327209 0,0.519012c0.112358,0.271255 0.326912,0.256836 0.415215,0.311417c0.197449,0.122025 0.207611,0.311417 0.415215,0.311417c0.311417,0 0.3834,-0.151428 0.51902,-0.207611c0.095901,-0.039734 0.207611,0 0.622826,0c0.311409,0 0.638329,0.049225 0.726631,0.103806c0.197433,0.122025 0.415215,0.311401 0.415215,0.207596c0,-0.207611 -0.428406,0.033371 -0.726631,-0.10379c-0.549911,-0.252914 -0.732178,-0.575134 -0.934235,-0.622833c-0.225899,-0.053329 -0.551193,-0.138855 -0.830429,-0.311417c-0.12487,-0.077164 -0.207611,-0.207596 -0.51902,-0.311401l-0.103806,0" id="svg_24" fill-opacity="null" stroke-width="null" fill="none"/>
  <path transform="rotate(-102.09620666503906 83.87355041503906,153.95156860351562) " d="m83.458336,153.899658c0.103798,0 0.207603,0 0.415215,0l0.207603,0.103806l0,0l0.207611,0" id="svg_25" fill-opacity="null" stroke-width="null" fill="none"/>
  <path filter="url(#svg_28_blur)" id="svg_28" d="m81.48606,154.27335c0,0 1.86847,3.63314 1.76467,3.61238c0.1038,0.02076 66.8497,0.12456 66.8497,0.12456c0,0 -7.05866,-5.60541 -7.16246,-5.62617c0.1038,0.02076 -61.45191,1.88923 -61.45191,1.88923z" fill-opacity="null" stroke-width="null" fill="#09816c"/>
 </g>
</svg>